<?xml version="1.0" standalone="no"?><!DOCTYPE svg PUBLIC "-//W3C//DTD SVG 1.1//EN" "http://www.w3.org/Graphics/SVG/1.1/DTD/svg11.dtd"><svg t="1660961733126" class="icon" viewBox="0 0 1024 1024" version="1.1" xmlns="http://www.w3.org/2000/svg" p-id="9337" xmlns:xlink="http://www.w3.org/1999/xlink" width="200" height="200"><defs><style type="text/css">@font-face { font-family: feedback-iconfont; src: url("//at.alicdn.com/t/font_1031158_u69w8yhxdu.woff2?t=1630033759944") format("woff2"), url("//at.alicdn.com/t/font_1031158_u69w8yhxdu.woff?t=1630033759944") format("woff"), url("//at.alicdn.com/t/font_1031158_u69w8yhxdu.ttf?t=1630033759944") format("truetype"); }
</style></defs><path d="M675.8 332.8l-207.9-0.2v-28.1c0-18.1-10.9-34.4-27.7-41.4-16.7-6.9-36-3.1-48.8 9.7l-72.7 72.7c-17.5 17.5-17.5 45.8 0 63.3l72.7 72.8c8.6 8.6 20 13.1 31.7 13.1 5.8 0 11.6-1.1 17.1-3.4 16.7-6.9 27.7-23.3 27.7-41.4V422l207.8 0.2h0.1c24.7 0 44.7-20 44.8-44.7-0.1-24.6-20.1-44.7-44.8-44.7zM634.6 535.8c-12.8-12.8-32.1-16.7-48.8-9.7-16.7 6.9-27.7 23.3-27.7 41.4v27.9l-207.8-0.2h-0.1c-24.7 0-44.7 20-44.8 44.7 0 24.7 20 44.8 44.7 44.8l207.9 0.2V713c0 18.1 10.9 34.4 27.6 41.4 5.5 2.3 11.4 3.4 17.1 3.4 11.7 0 23.1-4.5 31.7-13.1l72.8-72.7c8.4-8.4 13.1-19.8 13.1-31.7 0-11.9-4.7-23.3-13.1-31.7l-72.6-72.8z" fill="#333333" p-id="9338"></path><path d="M513 64.2c-247 0-447.9 200.9-447.9 447.9S266 960 513 960s447.9-200.9 447.9-447.9S760 64.2 513 64.2z m0 806.3c-197.6 0-358.3-160.8-358.3-358.3S315.4 153.8 513 153.8s358.3 160.8 358.3 358.3S710.6 870.5 513 870.5z" fill="#333333" p-id="9339"></path></svg>