<?xml version="1.0" standalone="no"?><!DOCTYPE svg PUBLIC "-//W3C//DTD SVG 1.1//EN" "http://www.w3.org/Graphics/SVG/1.1/DTD/svg11.dtd"><svg t="1660704741033" class="icon" viewBox="0 0 1024 1024" version="1.1" xmlns="http://www.w3.org/2000/svg" p-id="1509" xmlns:xlink="http://www.w3.org/1999/xlink" width="200" height="200"><defs><style type="text/css">@font-face { font-family: feedback-iconfont; src: url("//at.alicdn.com/t/font_1031158_u69w8yhxdu.woff2?t=1630033759944") format("woff2"), url("//at.alicdn.com/t/font_1031158_u69w8yhxdu.woff?t=1630033759944") format("woff"), url("//at.alicdn.com/t/font_1031158_u69w8yhxdu.ttf?t=1630033759944") format("truetype"); }
</style></defs><path d="M160 298.3h64v13.3h-64z" fill="#A6A495" p-id="1510"></path><path d="M172.7 285.8h38.8v19h-38.8z" fill="#A6A495" p-id="1511"></path><path d="M875.8 904.2H154.3c-29.8 0-54.2-24.4-54.2-54.2V357.7c0-29.8 24.4-54.2 54.2-54.2h721.5c29.8 0 54.2 24.4 54.2 54.2V850c0 29.8-24.4 54.2-54.2 54.2z" fill="#E0DFCD" p-id="1512"></path><path d="M100 528.3h830v141.8H100z" fill="#3376D1" p-id="1513"></path><path d="M525.3 588.3m-209.6 0a209.6 209.6 0 1 0 419.2 0 209.6 209.6 0 1 0-419.2 0Z" fill="#C6C9BD" p-id="1514"></path><path d="M529.2 585m-166.2 0a166.2 166.2 0 1 0 332.4 0 166.2 166.2 0 1 0-332.4 0Z" fill="#A6A495" p-id="1515"></path><path d="M834.1 387m-22.5 0a22.5 22.5 0 1 0 45 0 22.5 22.5 0 1 0-45 0Z" fill="#D15232" p-id="1516"></path><path d="M348.8 231L241.1 336.3l595.4-3.6-106.5-102c-7.1-6.8-16.2-10.5-25.6-10.5H374.7c-9.6 0-18.8 3.8-25.9 10.8z" fill="#DFDECC" p-id="1517"></path><path d="M607.3 323H459.6c-19.4 0-35.2-15.8-35.2-35.2 0-19.4 15.8-35.2 35.2-35.2h147.7c19.4 0 35.2 15.8 35.2 35.2 0 19.3-15.8 35.2-35.2 35.2z" fill="#FFFFFF" p-id="1518"></path></svg>